<?xml version="1.0" encoding="utf-8"?>
<!-- Generator: Adobe Illustrator 16.0.4, SVG Export Plug-In . SVG Version: 6.00 Build 0)  -->
<!DOCTYPE svg PUBLIC "-//W3C//DTD SVG 1.1//EN" "http://www.w3.org/Graphics/SVG/1.1/DTD/svg11.dtd">
<svg version="1.1" id="widgetkit_icon" xmlns="http://www.w3.org/2000/svg" xmlns:xlink="http://www.w3.org/1999/xlink" x="0px"
	 y="0px" width="218px" height="175px" viewBox="0 0 218 175" enable-background="new 0 0 218 175" xml:space="preserve">
<g>
	<g>
		<path fill="#222222" d="M79.502,172H27.618c-4.418,0-8-3.582-8-8V57.126c0-2.843,1.509-5.472,3.963-6.907L99.076,6.093
			c2.494-1.458,5.58-1.458,8.074,0l75.501,44.126c2.454,1.435,3.963,4.064,3.963,6.907v47.54c0,0.06-0.001,0.119-0.002,0.178
			c0.001,0.059,0.002,0.118,0.002,0.178c0,4.418-3.582,8-8,8H87.502V164C87.502,168.418,83.921,172,79.502,172z M35.618,156h35.885
			v-50.979c0-4.418,3.582-8,8-8h91.112V61.717l-67.501-39.451l-67.496,39.45V156z"/>
	</g>
</g>
<g>
	<g>
		<path fill="#222222" d="M140.412,152.775c-5.569,0-10.072,4.512-10.072,10.079c0,5.562,4.503,10.075,10.072,10.075
			c5.566,0,10.076-4.513,10.076-10.075C150.488,157.287,145.979,152.775,140.412,152.775z M140.412,166.936
			c-2.251,0-4.081-1.827-4.081-4.081c0-2.255,1.83-4.08,4.081-4.08c2.256,0,4.081,1.825,4.081,4.08
			C144.493,165.108,142.668,166.936,140.412,166.936z"/>
	</g>
	<g>
		<path fill="#222222" d="M176.407,152.775c-5.57,0-10.077,4.512-10.077,10.079c0,5.562,4.507,10.075,10.077,10.075
			c5.562,0,10.077-4.513,10.077-10.075C186.484,157.287,181.969,152.775,176.407,152.775z M176.407,166.936
			c-2.255,0-4.082-1.827-4.082-4.081c0-2.255,1.827-4.08,4.082-4.08c2.25,0,4.08,1.825,4.08,4.08
			C180.487,165.108,178.657,166.936,176.407,166.936z"/>
	</g>
	<g>
		<path fill="#222222" d="M179.388,115.384h-63.206v39.311h-1.87c-1.103,0-1.997,0.895-1.997,1.998v4.163
			c0,1.104,0.895,1.999,1.997,1.999h1.87h7.123h5.657c0-6.322,5.126-11.448,11.45-11.448c6.328,0,11.455,5.126,11.455,11.448h12.944
			c0-6.322,5.123-11.448,11.454-11.448c6.321,0,11.446,5.126,11.446,11.448h4.291h7.623h1.371c1.104,0,2-0.895,2-1.999v-4.163
			c0-1.104-0.896-1.998-2-1.998h-1.371v-4.399c0.713-0.593,1.204-1.655,1.204-2.907c0-1.284-0.513-2.377-1.258-2.956
			c0-0.01,0-0.019,0-0.029c-0.043-0.489-0.123-0.983-0.237-1.472c-0.188-0.857-0.478-1.679-0.838-2.444l-10.473-22.175
			c-0.4-0.844-1.035-1.593-1.882-2.134c-0.852-0.534-1.795-0.794-2.735-0.794H179.388 M171.046,141.954
			c-0.512,0-1.025-0.198-1.416-0.587c-0.395-0.394-0.585-0.904-0.585-1.413v-16.369c0-0.455,0.172-0.914,0.521-1.264
			c0.352-0.347,0.809-0.523,1.27-0.523h10.217c0.738,0,1.483,0.206,2.146,0.642c0.665,0.433,1.149,1.031,1.44,1.709l6.185,14.189
			c0.339,0.769,0.29,1.692-0.205,2.444c-0.498,0.758-1.316,1.172-2.161,1.172H171.046z"/>
	</g>
</g>
</svg>
